<svg width="1080" height="1080" viewBox="0 0 1080 1080" fill="none" xmlns="http://www.w3.org/2000/svg">
<path d="M496.129 0L502.71 2.02247L513.677 26.2921L533.419 46.5169L544.387 56.6292V60.6742H548.774L559.742 72.809L588.258 91.0112L623.355 107.191L645.29 121.348L667.226 137.528L686.968 159.775L702.323 184.045L711.097 212.36L722.065 266.966L730.839 287.191L744 305.393L759.355 319.551L774.71 327.64L794.452 341.798L805.419 351.91L818.581 370.112L829.548 396.404L831.742 412.584V442.921L827.355 469.213L816.387 513.708L814.194 525.843V558.202L818.581 578.427L822.968 588.539L829.548 590.562V594.607L840.516 598.652L860.258 614.831L875.613 645.169L880 663.371V707.865L869.032 750.337L855.871 792.809L844.903 815.056L829.548 839.326L807.613 867.64L785.677 887.865L746.194 914.157L704.516 938.427L676 950.562L618.968 964.719L583.871 966.742L586.065 972.809L643.097 999.101H658.452L676 993.034H689.161L702.323 1007.19L708.903 1025.39L706.71 1045.62L691.355 1067.87L665.032 1080L647.484 1077.98L612.387 1061.8L557.548 1035.51L548.774 1033.48L553.161 1043.6V1053.71L537.806 1065.84L526.839 1067.87L524.645 1065.84L522.452 1071.91L507.097 1069.89L485.161 1031.46L467.613 1039.55L461.032 1041.57V1045.62L436.903 1059.78L408.387 1077.98L395.226 1080L382.065 1069.89L371.097 1049.66V1035.51L390.839 1021.35L421.548 1001.12L445.677 984.944V974.831L441.29 964.719L399.613 958.652L366.71 948.539L329.419 930.337L294.323 906.067L261.419 875.73L241.677 847.416L219.742 811.011L208.774 780.674L202.194 748.315L200 726.067V707.865L206.581 689.663L217.548 677.528L226.323 681.573L232.903 689.663L228.516 677.528L208.774 628.989L202.194 598.652L200 580.449V540L204.387 515.73L217.548 485.393L228.516 473.258H232.903V469.213L259.226 451.011L265.806 448.989L285.548 426.742L294.323 408.539L303.097 351.91L316.258 319.551L331.613 301.348L351.355 283.146L375.484 273.034L428.129 258.876L454.452 244.719L476.387 224.494L489.548 200.225L493.935 186.067L496.129 153.708L489.548 121.348L478.581 74.8315V46.5169L485.161 18.2022L493.935 2.02247L496.129 0Z" fill="#FC4337"/>
<path d="M576.748 281L583.333 283.023L592.114 301.228L596.505 321.456V353.82L592.114 384.162L578.943 422.595L565.771 444.846L548.21 467.096L539.429 473.165L526.257 471.142L532.843 485.301L546.014 517.666L552.6 545.985V580.372L546.014 606.668L528.452 639.033L521.867 645.101H517.476V649.147H513.086L508.695 657.238L493.329 673.42L480.157 693.648L471.376 715.899L469.181 726.013L471.376 758.377L480.157 780.628L493.329 796.81L495.524 802.878L506.5 806.924L524.062 819.061L548.21 829.175L554.795 831.197H574.552L589.919 817.038L607.481 794.787L614.067 772.537V711.853L609.676 665.329V645.101L618.457 618.805L622.848 620.828L633.824 645.101L646.995 661.284L666.752 675.443L699.681 691.625L717.243 709.83L730.414 734.104L737 766.468V790.742L732.61 815.015L721.633 839.289L704.071 859.516L682.119 875.699L646.995 895.927L636.019 901.995H631.629V916.154L633.824 920.2L622.848 926.268L616.262 936.382H609.676L605.286 944.473L598.7 950.542H594.31L589.919 960.656L622.848 958.633L653.581 950.542H660.167V954.587L618.457 964.701L583.333 966.724L585.529 972.792L642.605 999.089H657.971L675.533 993.02H688.705L701.876 1007.18L708.462 1025.38L706.267 1045.61L690.9 1067.86L664.557 1080L646.995 1077.98L611.871 1061.79L556.99 1035.5L548.21 1033.48L552.6 1043.59V1053.7L537.233 1065.84L526.257 1067.86L524.062 1065.84L521.867 1071.91L506.5 1069.89L484.548 1031.45L466.986 1039.54L460.4 1041.57V1045.61L436.252 1059.77L407.714 1077.98L394.543 1080L381.371 1069.89L370.395 1049.66V1035.5L390.152 1021.34L420.886 1001.11L445.033 984.929V974.815L440.643 964.701H436.252L429.667 948.519L392.348 936.382L363.81 922.223L337.467 899.972L319.905 879.744V875.699H315.514L302.343 855.471L284.781 815.015L278.195 790.742L276 774.559V677.466L284.781 641.056L297.952 618.805L315.514 596.554L333.076 582.395L368.2 558.122L398.933 537.894L416.495 521.711L429.667 499.461L434.057 483.278L436.252 424.618L442.838 408.435H447.229V402.367H451.619V398.322H456.01V394.276H460.4V390.23L491.133 372.025L515.281 355.843L537.233 337.638L556.99 315.387L576.748 281Z" fill="#FD9140"/>
<path d="M513.983 465L522.729 467.026L540.22 499.443L551.153 533.887L553.339 546.043V580.487L546.78 606.826L529.288 639.243L522.729 645.322H518.356V649.374H513.983L509.61 657.478L494.305 673.687L481.186 693.948L472.441 716.235L470.254 726.365L472.441 758.783L481.186 781.07L494.305 797.278L496.492 803.357L507.424 807.409L524.915 819.565L548.966 829.696L555.525 831.722H575.203L590.508 817.539L608 795.252L614.559 772.965V712.183L610.186 665.583V645.322L618.932 618.983L623.305 621.009L634.237 645.322L647.356 661.53L667.034 675.713L699.831 691.922L717.322 710.157L730.441 734.47L737 766.887V791.2L732.627 815.513L721.695 839.826L704.203 860.087L682.339 876.296L647.356 896.557L632.051 904.661L625.492 902.635L614.559 890.478L610.186 900.609L594.881 914.791L599.254 888.452L586.136 874.27L575.203 872.243L559.898 888.452L533.661 912.765L531.475 916.817H527.102V920.87L516.169 931L496.492 928.974L481.186 904.661L457.136 856.035L446.203 835.774V831.722H433.085V841.852L430.898 843.878V862.113L422.153 864.139L415.593 856.035V851.983L404.661 854.009L398.102 847.93L384.983 849.957L371.864 835.774L358.746 811.461L350 764.861V714.209L354.373 689.896L365.305 661.53L384.983 637.217L409.034 612.904L430.898 596.696L461.508 576.435L470.254 568.33H474.627V564.278H479L483.373 554.148L498.678 525.783L505.237 505.522L509.61 471.078L513.983 465Z" fill="#FEE8B5"/>
<path d="M432.455 831H445.623L469.766 875.537L485.13 905.902L496.104 926.146L515.857 928.171L522.442 920.073H526.831V916.024H531.221L535.61 907.927L570.727 875.537L575.117 869.463L586.091 871.488L601.455 887.683L597.065 911.976L605.844 899.829H610.234L614.623 887.683L625.597 897.805L632.182 905.902V916.024L634.377 920.073L623.403 926.146L616.818 936.268H610.234L605.844 944.366L599.26 950.439H594.87L590.481 960.561L623.403 958.537L654.13 950.439H660.714V954.488L619.013 964.61L583.896 966.634L586.091 972.707L643.156 999.024H658.519L676.078 992.951H689.247L702.416 1007.12L709 1025.34L706.805 1045.59L691.442 1067.85L665.104 1080L647.545 1077.98L612.429 1061.78L557.558 1035.46L548.779 1033.44L553.169 1043.56V1053.68L537.805 1065.83L526.831 1067.85L524.636 1065.83L522.442 1071.9L507.078 1069.88L485.13 1031.41L467.571 1039.51L460.987 1041.54V1045.59L436.844 1059.76L408.312 1077.98L395.143 1080L381.974 1069.88L371 1049.63V1035.46L390.753 1021.29L421.481 1001.05L445.623 984.854V974.732L441.234 964.61H436.844L430.26 948.415L425.87 946.39L414.896 920.073L408.312 909.951V903.878H403.922L388.558 871.488L381.974 859.341V849.22L397.338 845.171L403.922 851.244H414.896L421.481 861.366H428.065V843.146L432.455 831Z" fill="#D47C58"/>
<path d="M693.5 488H697.896L695.698 518.319V564.809L704.49 591.085L717.677 611.298L719.875 617.362H724.271L730.865 625.447V629.489L741.854 633.532L750.646 641.617V645.66H755.042V649.702H759.438L779.219 675.979L794.604 706.298L799 726.511V758.851L796.802 787.149L790.208 809.383L777.021 839.702L766.031 857.894L752.844 874.064L728.667 896.298H724.271V900.34L684.708 926.617L669.323 936.723L667.125 948.851V952.894L647.344 954.915L623.167 960.979L588 963L594.594 950.872L607.781 940.766L609.979 936.723H616.573L620.969 926.617L631.958 918.532L629.76 916.511L631.958 902.362L658.333 888.213L691.302 868L708.885 853.851L722.073 835.66L733.063 807.362L735.26 791.192V766.936L728.667 734.596L715.479 710.34L700.094 694.17L660.531 673.957L649.542 663.851V659.809L636.354 639.596L629.76 619.383V587.043L638.552 564.809L660.531 530.447L682.51 500.128H686.906L691.302 492.043L693.5 488Z" fill="#FD9140"/>
<path d="M537.647 634L548.529 638.041L559.412 656.224L565.941 672.388L568.118 688.551L592.059 690.571L596.412 692.592V696.633H600.765L611.647 720.878L616 735.02V771.388L609.471 793.612L587.706 819.878L574.647 832H555.059L528.941 821.898L496.294 801.694L478.882 779.469L470.176 757.245L468 724.918L476.706 698.653L487.588 678.449L502.824 660.265L513.706 648.143H518.059V644.102L526.765 642.082L528.941 638.041H533.294L537.647 634Z" fill="#FD9140"/>
<path d="M651.556 391L660.444 395.024L669.333 409.107L676 435.262V483.548L667.111 509.702L653.778 531.833H649.333L644.889 539.881L624.889 560H613.778L604.889 551.952V547.929H600.444L596 535.857V493.607L602.667 473.488L618.222 441.298L640.444 409.107L651.556 391Z" fill="#FE9240"/>
<path d="M628.267 919L646.867 921.333L651 926L642.733 930.667L620 933L624.133 923.667L628.267 919Z" fill="#FEE8B5"/>
<path d="M684.8 1011L687 1015.24L678.2 1034.29V1042.76H671.6L669.4 1047L667.2 1038.53L654 1030.06H660.6L673.8 1036.41L680.4 1017.35L684.8 1011Z" fill="#3A0F0C"/>
</svg>
