<svg width="1080" height="1080" viewBox="0 0 1080 1080" fill="none" xmlns="http://www.w3.org/2000/svg">
<path d="M506 123L509 124L515 140L521 151L537 168L547 178L554 186L559 190V192L563 194L578 204L603 216L618 225L629 234L642 246L652 257L664 275L668 283L673 299L677 319L681 344L685 360L690 372L697 383L707 394L721 404L731 410L742 419L751 428L760 442L766 458L769 472L770 480V504L767 528L762 549L757 568L755 584V600L758 616L762 625L767 631L782 641L791 650L799 664L805 680L808 693L809 700V720L806 741L802 758L796 779L788 808L780 826L771 841L761 855L750 869L746 874H744V876L736 883L727 891L709 904L692 915L679 923L657 935L648 939L627 945L608 950L575 955H572V957L578 959L600 970L623 981L632 980L651 973L656 975L664 982L670 992L672 1000V1014L668 1027L661 1037L653 1044L638 1051L629 1052L606 1040L570 1022L551 1012L545 1009L551 1022L550 1028L540 1037L530 1042L522 1044L513 1043L502 1020L496 1008L487 1013L476 1021L454 1036L444 1043L430 1053L424 1051L416 1044V1042H414L407 1030L404 1020V1011L414 1004L431 992L449 979L466 967L464 961L460 953V951L450 950L421 944L404 938L388 930L372 921L361 913L351 905L338 894L323 879L313 866L304 851L291 828L282 807L276 784L272 759L271 734L273 723L278 713L283 707L287 704L290 705L295 714L291 698L285 684L279 666L276 655L272 630L271 621V590L274 570L279 554L286 540L297 528L307 520L320 511L331 501L341 487L346 474L348 462L350 439L354 421L362 402L367 393L374 384L388 370L398 364L416 358L442 351L457 344L468 338L480 327L487 320L494 310L500 297L503 285L504 277V251L499 228L493 204L491 192V164L495 146L499 133L506 123Z" fill="#FD4438"/>
<path d="M569 365L573 366L576 370L582 387L584 396V437L581 456L573 483L570 489L562 504L551 520L542 529L538 532H533L528 528L532 538L538 551L545 571L550 595V616L548 634L542 650L530 674L525 678H523V680L515 687L506 697L497 711L490 725L485 739L484 744V767L488 784L492 794L499 805L509 815L528 828L543 835L558 839H566L572 835L582 824L591 812L596 802L600 784V761L601 757V747L598 724L596 698V683L599 664L603 656L605 658L610 671L616 682L624 692L635 702L651 710L656 712V714L661 716L669 722L674 727L681 736L688 750L693 768L694 777V808L691 823L686 836L680 848H678L676 853L665 865L654 873L639 882L620 895L618 896L617 899L612 901L613 913L610 914V916H608L606 920L601 925H599L597 929L592 934L588 939H586L584 944L577 950L576 952H584L582 954L572 955V957L578 959L600 970L623 981L632 980L651 973L656 975L664 982L670 992L672 1000V1014L668 1027L661 1037L653 1044L638 1051L629 1052L606 1040L570 1022L551 1012L545 1009L551 1022L550 1028L540 1037L530 1042L522 1044L513 1043L502 1020L496 1008L487 1013L476 1021L454 1036L444 1043L430 1053L424 1051L416 1044V1042H414L407 1030L404 1020V1011L414 1004L431 992L449 979L466 967L464 961L460 953V951L456 950L458 949L455 942L452 937L422 926L405 917L391 906L380 895L376 890V888H374L365 876L360 869L354 858L346 841L339 821L335 806L333 795L331 767V741L332 710L336 686L343 667L350 655L358 644L369 632L377 625L393 612L409 601L423 591L433 583L441 575L451 560L456 547L458 536V496L461 484L467 472L472 466H474V464L484 456H486V454L501 445L513 437L526 427L535 419L542 411L554 396L562 382L569 365Z" fill="#FD9240"/>
<path d="M519 525L524 526L529 532L538 551L545 571L550 595V616L548 634L542 650L530 674L525 678H523V680L515 687L506 697L497 711L490 725L485 739L484 744V767L488 784L492 794L499 805L509 815L528 828L543 835L558 839H566L572 835L582 824L591 812L596 802L600 784V761L601 757V747L598 724L596 698V683L599 664L603 656L605 658L610 671L616 682L624 692L635 702L651 710L656 712V714L661 716L669 722L674 727L681 736L688 750L693 768L694 777V808L691 823L686 836L680 848H678L676 853L665 865L654 873L639 882L620 895L610 899L603 889L600 886H598L594 895L588 900V897L586 901L584 900L587 892V884L580 875L572 870L567 871L555 884L550 889L535 905L528 913H526L524 917L520 921L509 920L504 917L496 901L489 885L479 866L466 838L464 836L454 837L456 844L452 846V855L454 861L452 864H447L442 856V854L432 855L430 849L423 850L421 852L417 851L416 848H414L404 834L399 824L395 810L391 784L390 768V753L391 732L394 716L398 703L404 691L414 677L425 663L432 655L440 648L451 639L470 626L483 616L490 608H492L494 604L502 591L509 574L514 554L517 528L519 525Z" fill="#FEE8B4"/>
<path d="M460 838H466L474 854L484 875L507 921L515 923H521L527 916L544 899L551 891H553L555 887L563 879L569 872L575 873L583 879L589 887V895L586 903L590 899V902L594 897L599 888L603 890L609 897L611 901L618 899V902L613 904L614 916L611 917V919H609L607 923L602 928H600L598 932L593 937L589 942H587L585 947L578 953L577 955H585L583 957L573 958V960L579 962L601 973L624 984L633 983L652 976L657 978L665 985L671 995L673 1003V1017L669 1030L662 1040L654 1047L639 1054L630 1055L607 1043L571 1025L552 1015L546 1012L552 1025L551 1031L541 1040L531 1045L523 1047L514 1046L503 1023L497 1011L488 1016L477 1024L455 1039L445 1046L431 1056L425 1054L417 1047V1045H415L408 1033L405 1023V1014L415 1007L432 995L450 982L467 970L465 964L461 956V954L457 953L459 952L456 945L435 903L426 884L417 866V859L424 852H431L433 857H443L448 866L453 867L454 862L452 858V851L456 846L455 840L460 838Z" fill="#D8815A"/>
<path d="M663 542H665L664 557L662 576V602L666 622L673 638L685 655L700 670L708 677L716 686V688H718L730 706L738 723L742 736L744 747V780L743 795L739 813L729 840L720 857L709 873L693 889L682 898L668 909L653 919L643 926L641 929L640 939L643 940L620 947L602 951L590 953L576 952L578 948L582 944H584L586 939H588L590 935L593 932H595L597 928L599 925H601L602 922L607 918L608 916H610V914L612 913L611 901L614 899H617L618 895L629 888L647 876L657 870L666 863L675 853L678 848H680L681 844L688 829L692 815L693 808V777L691 764L686 748L679 735L672 726V724L668 722L658 715L656 714V712L651 711L635 703L628 697L631 696L622 684L615 670L611 655L610 648V636L613 619L620 605L631 587L642 568L655 552L663 542Z" fill="#FD9240"/>
<path d="M536 670L544 671L552 680L556 688L560 701L562 717L563 715L584 719L590 727L594 736L598 746L600 756L601 747H602V757L601 766V784L597 802L592 812L585 821L573 835L568 839L566 840H558L543 836L526 828L508 815L497 804L491 794L486 781L483 767V744L487 730L494 714L503 700L511 690L521 680H523V678L530 673L532 671V674L536 670Z" fill="#FD9240"/>
<path d="M629 460H632V462H634V464L637 465L642 475L646 491L648 504V531L646 546L641 561L633 575L625 586L613 600L610 603H608V605H600L594 601L590 596L586 588L584 580V554L588 537L597 516L605 500L615 483L625 465L629 460Z" fill="#FD9240"/>
<path d="M300 891H309L317 895L321 900L323 904V913L319 921L312 927L305 929L295 928L287 923L283 915V904L288 896L295 892L300 891Z" fill="#010101"/>
<path d="M224 579H233L242 584L249 595V605L245 612L239 617L236 618H225L216 613L211 606L210 603V592L216 583L224 579Z" fill="#010101"/>
<path d="M219 622L227 623L232 626L237 632L241 642V654L238 658L232 657L224 655L203 652L201 648V638L205 629L208 628V626L214 623L219 622Z" fill="#010101"/>
<path d="M234 705L238 707L239 712L231 731H242L243 736L240 738L224 740H208L204 738L202 730L201 727V718L205 712L211 709L218 710L223 714L226 717L232 706L234 705Z" fill="#010101"/>
<path d="M279 850L284 851L286 854V866L279 886L298 875H302L301 880L291 888L277 897L270 898L268 896L269 887L277 864L271 866L256 875H251L249 873L250 868L260 861L276 851L279 850Z" fill="#010101"/>
<path d="M246 781H251L253 783L252 788L248 790L249 797L253 809L264 812L265 816L264 818H237L225 816L220 811L221 806L230 795L238 787L246 781Z" fill="#010101"/>
<path d="M272 453L290 454L304 457L309 460L310 465L308 467H298L290 479L291 486L293 489L292 494L287 493L277 480L270 469L267 464V456L272 453Z" fill="#010101"/>
<path d="M229 662H235L237 663V669L231 672H229V692L234 694L238 696L239 700L237 702L228 700L211 693L201 687L198 683L199 677L216 667L229 662Z" fill="#010101"/>
<path d="M382 299L387 301L394 322V334L390 340L386 343L379 344L371 342L364 336L357 321L356 314L358 312L362 313L369 323L374 331L379 333L384 332V325L378 304L380 300L382 299Z" fill="#010101"/>
<path d="M331 916L338 917L348 923L354 933L355 936V946L351 954L344 960L333 963L323 962L317 959L313 954L311 949L312 943L316 944L320 950L324 953L332 954L341 951L345 945V937L341 931L335 926L329 923L328 918L331 916Z" fill="#010101"/>
<path d="M238 742L245 743L246 744L248 753L249 756V766L246 772L239 778L235 780H224L216 776L209 768L207 764V754L210 751H212L213 760L217 766L221 770L224 771H234L239 766L240 763V755L238 751H231V758H227L224 753V748L230 744L238 742Z" fill="#010101"/>
<path d="M314 345L319 346L320 350L316 356L312 361L313 364L320 368L322 363L327 357L331 358L332 361L325 372V375L328 377L333 376L338 367L342 366L344 367V375L339 383L333 388L326 387L320 383L313 375L303 364L304 358L311 347L314 345Z" fill="#010101"/>
<path d="M340 324L346 325L348 328L339 333L337 336L336 341L349 339H357L364 343L366 347L365 354L358 362L354 364L347 363L345 360L346 356L355 350V348L346 349H335L330 346L328 342L329 334L333 328L340 324Z" fill="#010101"/>
<path d="M227 546H232V549L229 554L228 564L235 561L242 554L246 552H255L260 556L261 558V565L258 573L256 576L248 577L246 575L247 570L250 564L251 560L245 563L236 571L227 572L222 568L220 562L221 553L224 548L227 546Z" fill="#010101"/>
<path d="M409 292H418L422 296V298L410 300L407 302L406 306L418 309L424 312L428 317L429 319V326L423 331L418 333H410L405 329L406 324L408 322L419 321V319L406 315L400 311L398 307L399 300L403 295L409 292Z" fill="#010101"/>
<path d="M264 822L271 825L277 834V841L274 845L269 844L265 835L264 833H262L261 848L257 856L250 858L243 855L239 851L236 844L237 838L241 836L245 846L248 849L252 850L253 832L256 826H258V824L264 822Z" fill="#010101"/>
<path d="M293 375L298 376L307 380L319 387L324 393L325 401L322 407L318 410H313L311 406L316 400L315 394L310 390L293 383L291 381L292 376L293 375Z" fill="#010101"/>
<path d="M298 901H310L314 906V913L309 919L303 921L296 920L293 912V906L298 901Z" fill="#F8EBE4"/>
<path d="M225 589H232L238 594L240 598V604L235 609H226L220 605L218 603V597L225 589Z" fill="#F8EBE4"/>
<path d="M215 632H223L228 636L231 643V647L210 646L208 645L210 637L215 632Z" fill="#F6E6DD"/>
<path d="M448 875L452 879L464 903L475 926L487 951L486 953L478 939L466 913L457 896L448 877V875Z" fill="#010101"/>
<path d="M655 989H657L655 995L647 1012V1014L657 1020L658 1022L653 1020L645 1016L637 1033H635L637 1027L642 1016V1014L627 1005L630 1004L642 1011L645 1012L647 1006L655 989Z" fill="#010101"/>
<path d="M209 718H214L219 726L220 732H212L209 729L208 720L209 718Z" fill="#F3D9CB"/>
<path d="M610 914L618 915L627 917V919L616 922L603 923L608 916H610V914Z" fill="#FEE9B5"/>
<path d="M537 986L542 987L570 1003L592 1016L598 1020L596 1021L586 1015L575 1009L537 987V986Z" fill="#010101"/>
<path d="M536 966L542 968L558 976L569 982L590 994V996L585 994L571 986L560 980L537 968L536 966Z" fill="#010101"/>
<path d="M217 676H220V686L213 685L207 682L211 679L217 676Z" fill="#F0CDBB"/>
<path d="M276 461L289 463L285 471H281L275 462L276 461Z" fill="#F2D5C4"/>
<path d="M509 998L512 1002L528 1035L529 1040L525 1035L517 1019L508 999L509 998Z" fill="#010101"/>
<path d="M238 799H240L243 809H229L235 802L238 799Z" fill="#F1D3C2"/>
<path d="M367 290H370L371 294L368 303L365 302V293L367 290Z" fill="#010101"/>
<path d="M510 920L516 921V926L511 929L508 926L507 922L510 920Z" fill="#FB9142"/>
<path d="M663 866L666 867L651 877L644 881H642V879L657 870L663 866Z" fill="#E38755"/>
<path d="M530 965H532L531 968L520 975L510 982L508 981L526 968L530 965Z" fill="#010101"/>
<path d="M287 704L290 705L292 711L289 708V706L281 713L278 715L280 710L287 704Z" fill="#E37453"/>
<path d="M507 695L509 696L507 700H505L503 705L500 709H498L500 704L507 695Z" fill="#E58753"/>
<path d="M636 939H643L640 941L629 944V942L636 939Z" fill="#DD8459"/>
</svg>
